<svg width="364" height="326" viewBox="0 0 364 326" fill="none" xmlns="http://www.w3.org/2000/svg">
<path d="M17.7592 325H1V310" stroke="#027541" stroke-width="1.5"/>
<path d="M346.241 325H363V310" stroke="#027541" stroke-width="1.5"/>
<path d="M346.241 1H363V16" stroke="#027541" stroke-width="1.5"/>
<path d="M17.7592 1H1V16" stroke="#027541" stroke-width="1.5"/>
<rect x="5.38794" y="30" width="353.224" height="291" fill="#77C063" fill-opacity="0.5" stroke="#1F8C44"/>
<rect x="5.38989" y="5" width="353.22" height="25" fill="#77C063" fill-opacity="0.5" stroke="#1F8C44"/>
<path d="M147.771 24V11.2031H152.156C153.604 11.2031 154.705 11.4932 155.461 12.0732C156.217 12.6533 156.595 13.5176 156.595 14.666C156.595 15.252 156.437 15.7793 156.12 16.248C155.804 16.7168 155.341 17.0801 154.732 17.3379C155.423 17.5254 155.956 17.8799 156.331 18.4014C156.712 18.917 156.903 19.5381 156.903 20.2646C156.903 21.4658 156.516 22.3887 155.742 23.0332C154.975 23.6777 153.873 24 152.438 24H147.771ZM149.994 18.2256V22.2246H152.464C153.161 22.2246 153.706 22.0518 154.099 21.7061C154.491 21.3604 154.688 20.8799 154.688 20.2646C154.688 18.9346 154.008 18.2549 152.649 18.2256H149.994ZM149.994 16.5908H152.174C152.865 16.5908 153.405 16.4355 153.791 16.125C154.184 15.8086 154.38 15.3633 154.38 14.7891C154.38 14.1562 154.198 13.6992 153.835 13.418C153.478 13.1367 152.918 12.9961 152.156 12.9961H149.994V16.5908ZM164.602 24C164.508 23.8184 164.426 23.5225 164.356 23.1123C163.676 23.8213 162.844 24.1758 161.86 24.1758C160.905 24.1758 160.125 23.9033 159.522 23.3584C158.918 22.8135 158.616 22.1396 158.616 21.3369C158.616 20.3232 158.991 19.5469 159.741 19.0078C160.497 18.4629 161.575 18.1904 162.976 18.1904H164.285V17.5664C164.285 17.0742 164.148 16.6816 163.872 16.3887C163.597 16.0898 163.178 15.9404 162.615 15.9404C162.129 15.9404 161.731 16.0635 161.42 16.3096C161.11 16.5498 160.954 16.8574 160.954 17.2324H158.819C158.819 16.7109 158.991 16.2246 159.337 15.7734C159.683 15.3164 160.152 14.959 160.743 14.7012C161.341 14.4434 162.006 14.3145 162.739 14.3145C163.852 14.3145 164.74 14.5957 165.402 15.1582C166.064 15.7148 166.404 16.5 166.421 17.5137V21.8027C166.421 22.6582 166.541 23.3408 166.781 23.8506V24H164.602ZM162.255 22.4619C162.677 22.4619 163.073 22.3594 163.442 22.1543C163.817 21.9492 164.098 21.6738 164.285 21.3281V19.5352H163.134C162.343 19.5352 161.748 19.6729 161.35 19.9482C160.951 20.2236 160.752 20.6133 160.752 21.1172C160.752 21.5273 160.887 21.8555 161.156 22.1016C161.432 22.3418 161.798 22.4619 162.255 22.4619ZM162.044 12.9258L161.983 11.6426C162.41 11.6133 162.718 11.5576 162.906 11.4756C163.099 11.3936 163.196 11.25 163.196 11.0449C163.196 10.623 162.756 10.4121 161.877 10.4121L161.939 9.33105C162.929 9.33105 163.673 9.4834 164.171 9.78809C164.675 10.0928 164.927 10.5029 164.927 11.0186C164.927 11.3701 164.813 11.6602 164.584 11.8887C164.356 12.1172 164.031 12.2607 163.609 12.3193V12.9258H162.044ZM170.64 14.4902L170.701 15.5889C171.405 14.7393 172.327 14.3145 173.47 14.3145C175.45 14.3145 176.458 15.4482 176.493 17.7158V24H174.358V17.8389C174.358 17.2354 174.226 16.79 173.962 16.5029C173.704 16.21 173.28 16.0635 172.688 16.0635C171.826 16.0635 171.185 16.4531 170.763 17.2324V24H168.627V14.4902H170.64ZM178.304 19.1748C178.304 17.6982 178.65 16.5205 179.341 15.6416C180.038 14.7568 180.961 14.3145 182.11 14.3145C183.194 14.3145 184.046 14.6924 184.667 15.4482L184.764 14.4902H186.689V23.71C186.689 24.958 186.299 25.9424 185.52 26.6631C184.746 27.3838 183.7 27.7441 182.382 27.7441C181.685 27.7441 181.002 27.5977 180.334 27.3047C179.672 27.0176 179.168 26.6396 178.823 26.1709L179.833 24.8877C180.49 25.667 181.298 26.0566 182.259 26.0566C182.968 26.0566 183.528 25.8633 183.938 25.4766C184.348 25.0957 184.553 24.5332 184.553 23.7891V23.1475C183.938 23.833 183.117 24.1758 182.092 24.1758C180.979 24.1758 180.068 23.7334 179.359 22.8486C178.656 21.9639 178.304 20.7393 178.304 19.1748ZM180.431 19.3594C180.431 20.3145 180.624 21.0674 181.011 21.6182C181.404 22.1631 181.946 22.4355 182.637 22.4355C183.498 22.4355 184.137 22.0664 184.553 21.3281V17.1445C184.149 16.4238 183.516 16.0635 182.655 16.0635C181.951 16.0635 181.404 16.3418 181.011 16.8984C180.624 17.4551 180.431 18.2754 180.431 19.3594ZM202.298 12.9961H198.308V24H196.102V12.9961H192.147V11.2031H202.298V12.9961ZM206.051 24H203.915V14.4902H206.051V24ZM203.783 12.0205C203.783 11.6924 203.886 11.4199 204.091 11.2031C204.302 10.9863 204.601 10.8779 204.988 10.8779C205.374 10.8779 205.673 10.9863 205.884 11.2031C206.095 11.4199 206.2 11.6924 206.2 12.0205C206.2 12.3428 206.095 12.6123 205.884 12.8291C205.673 13.04 205.374 13.1455 204.988 13.1455C204.601 13.1455 204.302 13.04 204.091 12.8291C203.886 12.6123 203.783 12.3428 203.783 12.0205ZM210.366 14.4902L210.428 15.5889C211.131 14.7393 212.054 14.3145 213.197 14.3145C215.177 14.3145 216.185 15.4482 216.22 17.7158V24H214.084V17.8389C214.084 17.2354 213.952 16.79 213.689 16.5029C213.431 16.21 213.006 16.0635 212.414 16.0635C211.553 16.0635 210.911 16.4531 210.49 17.2324V24H208.354V14.4902H210.366Z" fill="#0D3C0A"/>
</svg>
