<svg width="117" height="40" viewBox="0 0 117 40" fill="none" xmlns="http://www.w3.org/2000/svg">
<path d="M15.7668 1L2 39H88.5857H115.757V1H15.7668Z" fill="#1F8C44" stroke="#027541" stroke-width="1.5"/>
<path d="M58.5882 22.0116L52.8132 16.2378L54.4617 14.5869L58.5882 18.7134L68.4874 8.81311L70.137 10.4628L58.587 22.0128L58.5882 22.0116ZM53.638 22.0116L47.863 16.2378L49.5127 14.5869L55.2877 20.3619L53.6392 22.0116H53.638ZM58.5882 17.0626L56.9374 15.4129L64.362 7.98828L66.0129 9.63795L58.5882 17.0614V17.0626Z" fill="white"/>
<path d="M39.9316 36H38.4492L34.6465 29.9473V36H33.1641V27.4688H34.6465L38.4609 33.5449V27.4688H39.9316V36ZM42.9492 30.3516C43.4141 29.8125 44.002 29.543 44.7129 29.543C46.0645 29.543 46.75 30.3145 46.7695 31.8574V36H45.3457V31.9102C45.3457 31.4727 45.25 31.1641 45.0586 30.9844C44.8711 30.8008 44.5938 30.709 44.2266 30.709C43.6562 30.709 43.2305 30.9629 42.9492 31.4707V36H41.5254V27H42.9492V30.3516ZM49.7285 36H48.3047V29.6602H49.7285V36ZM48.2168 28.0137C48.2168 27.7949 48.2852 27.6133 48.4219 27.4688C48.5625 27.3242 48.7617 27.252 49.0195 27.252C49.2773 27.252 49.4766 27.3242 49.6172 27.4688C49.7578 27.6133 49.8281 27.7949 49.8281 28.0137C49.8281 28.2285 49.7578 28.4082 49.6172 28.5527C49.4766 28.6934 49.2773 28.7637 49.0195 28.7637C48.7617 28.7637 48.5625 28.6934 48.4219 28.5527C48.2852 28.4082 48.2168 28.2285 48.2168 28.0137ZM54.0762 36.1172C53.1738 36.1172 52.4414 35.834 51.8789 35.2676C51.3203 34.6973 51.041 33.9395 51.041 32.9941V32.8184C51.041 32.1855 51.1621 31.6211 51.4043 31.125C51.6504 30.625 51.9941 30.2363 52.4355 29.959C52.877 29.6816 53.3691 29.543 53.9121 29.543C54.7754 29.543 55.4414 29.8184 55.9102 30.3691C56.3828 30.9199 56.6191 31.6992 56.6191 32.707V33.2812H52.4766C52.5195 33.8047 52.6934 34.2188 52.998 34.5234C53.3066 34.8281 53.6934 34.9805 54.1582 34.9805C54.8105 34.9805 55.3418 34.7168 55.752 34.1895L56.5195 34.9219C56.2656 35.3008 55.9258 35.5957 55.5 35.8066C55.0781 36.0137 54.6035 36.1172 54.0762 36.1172ZM53.9062 30.6855C53.5156 30.6855 53.1992 30.8223 52.957 31.0957C52.7188 31.3691 52.5664 31.75 52.5 32.2383H55.2129V32.1328C55.1816 31.6562 55.0547 31.2969 54.832 31.0547C54.6094 30.8086 54.3008 30.6855 53.9062 30.6855ZM55.8281 28.623V28.6875H54.6855L53.8066 27.7734L52.9336 28.6875H51.8027V28.6113L53.3906 26.9941H54.2285L55.8281 28.623ZM53.0566 37.4121C53.0566 37.2051 53.125 37.0312 53.2617 36.8906C53.4023 36.7539 53.6016 36.6855 53.8594 36.6855C54.1172 36.6855 54.3164 36.7539 54.457 36.8906C54.5977 37.0312 54.668 37.2051 54.668 37.4121C54.668 37.6191 54.5977 37.791 54.457 37.9277C54.3164 38.0645 54.1172 38.1328 53.8594 38.1328C53.6016 38.1328 53.4023 38.0645 53.2617 37.9277C53.125 37.791 53.0566 37.6191 53.0566 37.4121ZM59.0684 29.6602L59.1094 30.3223C59.5547 29.8027 60.1641 29.543 60.9375 29.543C61.7852 29.543 62.3652 29.8672 62.6777 30.5156C63.1387 29.8672 63.7871 29.543 64.623 29.543C65.3223 29.543 65.8418 29.7363 66.1816 30.123C66.5254 30.5098 66.7012 31.0801 66.709 31.834V36H65.2852V31.875C65.2852 31.4727 65.1973 31.1777 65.0215 30.9902C64.8457 30.8027 64.5547 30.709 64.1484 30.709C63.8242 30.709 63.5586 30.7969 63.3516 30.9727C63.1484 31.1445 63.0059 31.3711 62.9238 31.6523L62.9297 36H61.5059V31.8281C61.4863 31.082 61.1055 30.709 60.3633 30.709C59.793 30.709 59.3887 30.9414 59.1504 31.4062V36H57.7266V29.6602H59.0684ZM74.3027 34.1426L76.4707 27.4688H78.0996L75.0293 36H73.5938L70.5352 27.4688H72.1582L74.3027 34.1426ZM82.6055 35.3789C82.1875 35.8711 81.5938 36.1172 80.8242 36.1172C80.1367 36.1172 79.6152 35.916 79.2598 35.5137C78.9082 35.1113 78.7324 34.5293 78.7324 33.7676V29.6602H80.1562V33.75C80.1562 34.5547 80.4902 34.957 81.1582 34.957C81.8496 34.957 82.3164 34.709 82.5586 34.2129V29.6602H83.9824V36H82.6406L82.6055 35.3789ZM80.0859 37.4121C80.0859 37.2051 80.1543 37.0312 80.291 36.8906C80.4316 36.7539 80.6309 36.6855 80.8887 36.6855C81.1465 36.6855 81.3457 36.7539 81.4863 36.8906C81.627 37.0312 81.6973 37.2051 81.6973 37.4121C81.6973 37.6191 81.627 37.791 81.4863 37.9277C81.3457 38.0645 81.1465 38.1328 80.8887 38.1328C80.6309 38.1328 80.4316 38.0645 80.291 37.9277C80.1543 37.791 80.0859 37.6191 80.0859 37.4121Z" fill="white"/>
</svg>
