<svg width="114" height="40" viewBox="0 0 114 40" fill="none" xmlns="http://www.w3.org/2000/svg">
<path d="M99.9902 39L113.757 1H13.6682L1.52588e-05 39H99.9902Z" fill="#9BC88B"/>
<path d="M113.757 1H13.6682M99.9902 39H1.52588e-05" stroke="#027541" stroke-width="1.5"/>
<path d="M53.257 4.5C50.0353 4.5 47.4237 7.11167 47.4237 10.3333C47.4237 13.555 50.0353 16.1667 53.257 16.1667C56.4787 16.1667 59.0903 13.555 59.0903 10.3333C59.0903 7.11167 56.4787 4.5 53.257 4.5ZM49.757 10.3333C49.757 8.40034 51.324 6.83333 53.257 6.83333C55.19 6.83333 56.757 8.40034 56.757 10.3333C56.757 12.2663 55.19 13.8333 53.257 13.8333C51.324 13.8333 49.757 12.2663 49.757 10.3333Z" fill="#2E3A59"/>
<path d="M62.4835 10.588C62.1553 10.4206 61.7921 10.3334 61.4237 10.3334V8.00007C62.1605 8.00007 62.8869 8.17449 63.5434 8.50919C63.6157 8.54606 63.6869 8.58475 63.757 8.62521C64.3233 8.95216 64.8154 9.39497 65.2005 9.92565C65.6333 10.522 65.9188 11.2124 66.0335 11.9403C66.1481 12.6681 66.0889 13.4128 65.8604 14.1134C65.632 14.814 65.2409 15.4505 64.7192 15.9708C64.1975 16.4912 63.5599 16.8806 62.8588 17.1072C62.2348 17.3088 61.5763 17.3765 60.9261 17.3067C60.8457 17.2981 60.7653 17.2874 60.6852 17.2745C59.9581 17.158 59.2689 16.8711 58.674 16.4372L58.6728 16.4363L60.0482 14.5515C60.3458 14.7687 60.6907 14.9122 61.0544 14.9705C61.4182 15.0288 61.7906 15.0002 62.1412 14.8869C62.4918 14.7736 62.8105 14.5789 63.0714 14.3187C63.3322 14.0585 63.5278 13.7403 63.642 13.39C63.7562 13.0397 63.7858 12.6674 63.7285 12.3035C63.6711 11.9395 63.5284 11.5944 63.312 11.2962C63.0956 10.998 62.8117 10.7553 62.4835 10.588Z" fill="#2E3A59"/>
<path d="M66.0881 25.5C66.0881 24.8875 65.9675 24.2809 65.7331 23.715C65.4986 23.1491 65.1551 22.6349 64.7219 22.2017C64.2888 21.7686 63.7746 21.425 63.2087 21.1906C62.6428 20.9562 62.0362 20.8355 61.4237 20.8355V18.5C62.2194 18.5 63.0084 18.6357 63.757 18.9003C63.8732 18.9414 63.9884 18.9856 64.1025 19.0328C64.9517 19.3846 65.7234 19.9002 66.3734 20.5503C67.0234 21.2003 67.539 21.9719 67.8908 22.8212C67.9381 22.9353 67.9823 23.0505 68.0233 23.1667C68.288 23.9152 68.4237 24.7042 68.4237 25.5H66.0881Z" fill="#2E3A59"/>
<path d="M61.4237 25.5H59.0903C59.0903 22.2783 56.4787 19.6667 53.257 19.6667C50.0353 19.6667 47.4237 22.2783 47.4237 25.5H45.0903C45.0903 20.9897 48.7467 17.3333 53.257 17.3333C57.7673 17.3333 61.4237 20.9897 61.4237 25.5Z" fill="#2E3A59"/>
<path d="M47.6613 36H46.1788L42.3761 29.9473V36H40.8937V27.4688H42.3761L46.1906 33.5449V27.4688H47.6613V36ZM50.6788 30.3516C51.1437 29.8125 51.7316 29.543 52.4425 29.543C53.7941 29.543 54.4796 30.3145 54.4991 31.8574V36H53.0753V31.9102C53.0753 31.4727 52.9796 31.1641 52.7882 30.9844C52.6007 30.8008 52.3234 30.709 51.9562 30.709C51.3859 30.709 50.9601 30.9629 50.6788 31.4707V36H49.255V27H50.6788V30.3516ZM55.6769 32.7715C55.6769 32.1504 55.7999 31.5918 56.046 31.0957C56.2921 30.5957 56.6378 30.2129 57.0831 29.9473C57.5284 29.6777 58.0402 29.543 58.6183 29.543C59.4738 29.543 60.1671 29.8184 60.6984 30.3691C61.2335 30.9199 61.5226 31.6504 61.5656 32.5605L61.5714 32.8945C61.5714 33.5195 61.4503 34.0781 61.2081 34.5703C60.9698 35.0625 60.6261 35.4434 60.1769 35.7129C59.7316 35.9824 59.2159 36.1172 58.63 36.1172C57.7355 36.1172 57.0187 35.8203 56.4796 35.2266C55.9445 34.6289 55.6769 33.834 55.6769 32.8418V32.7715ZM57.1007 32.8945C57.1007 33.5469 57.2355 34.0586 57.505 34.4297C57.7745 34.7969 58.1495 34.9805 58.63 34.9805C59.1105 34.9805 59.4835 34.793 59.7491 34.418C60.0187 34.043 60.1534 33.4941 60.1534 32.7715C60.1534 32.1309 60.0148 31.623 59.7374 31.248C59.464 30.873 59.0909 30.6855 58.6183 30.6855C58.1534 30.6855 57.7843 30.8711 57.5109 31.2422C57.2374 31.6094 57.1007 32.1602 57.1007 32.8945ZM59.0109 27H60.6339L59.0109 28.7754H57.8683L59.0109 27ZM64.1144 29.6602L64.1554 30.3223C64.6007 29.8027 65.2101 29.543 65.9835 29.543C66.8312 29.543 67.4113 29.8672 67.7238 30.5156C68.1847 29.8672 68.8331 29.543 69.6691 29.543C70.3683 29.543 70.8878 29.7363 71.2277 30.123C71.5714 30.5098 71.7472 31.0801 71.755 31.834V36H70.3312V31.875C70.3312 31.4727 70.2433 31.1777 70.0675 30.9902C69.8917 30.8027 69.6007 30.709 69.1945 30.709C68.8702 30.709 68.6046 30.7969 68.3976 30.9727C68.1945 31.1445 68.0519 31.3711 67.9698 31.6523L67.9757 36H66.5519V31.8281C66.5323 31.082 66.1515 30.709 65.4093 30.709C64.839 30.709 64.4347 30.9414 64.1964 31.4062V36H62.7726V29.6602H64.1144Z" fill="#2E3A59"/>
</svg>
