<svg width="29" height="23" viewBox="0 0 29 23" fill="none" xmlns="http://www.w3.org/2000/svg">
<path d="M25.5 22.5H3.5C2.02946 22.544 0.800073 21.3908 0.75 19.9205V3.07812C0.800068 1.60798 2.02969 0.455214 3.5 0.499999H25.5C26.9703 0.455214 28.1999 1.60798 28.25 3.07812V19.9219C28.1992 21.3917 26.97 22.544 25.5 22.5ZM3.5 3.25V19.7349L25.5 19.75V3.26512L3.5 3.25ZM16.4663 17H6.25C6.3511 15.8616 6.88984 14.8068 7.75287 14.0575C8.71376 13.1042 10.0049 12.5577 11.3581 12.5312C12.7114 12.5577 14.0025 13.1042 14.9634 14.0575C15.8262 14.8069 16.3649 15.8617 16.4663 17ZM22.75 15.625H18.625V12.875H22.75V15.625ZM11.3581 11.5C10.6212 11.5256 9.90678 11.2441 9.3854 10.7227C8.86402 10.2013 8.58252 9.4869 8.60813 8.75C8.58293 8.01322 8.86456 7.29901 9.38585 6.77772C9.90714 6.25644 10.6213 5.9748 11.3581 6C12.0949 5.9748 12.8091 6.25644 13.3304 6.77772C13.8517 7.29901 14.1333 8.01322 14.1081 8.75C14.1337 9.4869 13.8522 10.2013 13.3309 10.7227C12.8095 11.2441 12.095 11.5256 11.3581 11.5ZM22.75 10.125H17.25V7.375H22.75V10.125Z" fill="white"/>
</svg>
