<svg width="16" height="22" viewBox="0 0 16 22" fill="none" xmlns="http://www.w3.org/2000/svg">
<path d="M8 16.39C6.41775 16.39 4.87104 15.9208 3.55544 15.0417C2.23985 14.1627 1.21447 12.9132 0.608967 11.4514C0.00346622 9.98963 -0.15496 8.38109 0.153721 6.82925C0.462403 5.2774 1.22433 3.85193 2.34315 2.73311C3.46197 1.61429 4.88743 0.852368 6.43928 0.543686C7.99113 0.235005 9.59966 0.393431 11.0615 0.998932C12.5233 1.60443 13.7727 2.62981 14.6518 3.94541C15.5308 5.261 16 6.80772 16 8.38997C16 10.5117 15.1572 12.5465 13.6569 14.0468C12.1566 15.5471 10.1217 16.39 8 16.39ZM8 2.38997C6.81332 2.38997 5.65328 2.74186 4.66658 3.40115C3.67989 4.06044 2.91085 4.99751 2.45673 6.09387C2.0026 7.19023 1.88378 8.39663 2.11529 9.56051C2.3468 10.7244 2.91825 11.7935 3.75736 12.6326C4.59648 13.4717 5.66558 14.0432 6.82946 14.2747C7.99335 14.5062 9.19975 14.3874 10.2961 13.9332C11.3925 13.4791 12.3295 12.7101 12.9888 11.7234C13.6481 10.7367 14 9.57666 14 8.38997C13.9947 6.80214 13.3602 5.28115 12.2356 4.16025C11.1109 3.03935 9.58784 2.40996 8 2.40997V2.38997Z" fill="#1E5630"/>
<path d="M4.32998 21.9899C4.13574 21.9861 3.94597 21.9309 3.77998 21.8299C3.64101 21.7384 3.52707 21.6137 3.44849 21.467C3.36991 21.3203 3.32918 21.1563 3.32998 20.9899V14.3499C3.32998 14.0847 3.43534 13.8304 3.62288 13.6428C3.81041 13.4553 4.06477 13.3499 4.32998 13.3499C4.5952 13.3499 4.84955 13.4553 5.03709 13.6428C5.22463 13.8304 5.32998 14.0847 5.32998 14.3499V19.4399L7.84998 18.2999C8.09266 18.1912 8.36859 18.1833 8.61707 18.278C8.86556 18.3727 9.06624 18.5623 9.17498 18.8049C9.28372 19.0476 9.2916 19.3235 9.1969 19.572C9.10219 19.8205 8.91266 20.0212 8.66998 20.1299L4.73998 21.8999C4.61122 21.9586 4.47148 21.9893 4.32998 21.9899Z" fill="#1E5630"/>
<path d="M12.19 21.9899C12.0485 21.9893 11.9088 21.9586 11.78 21.8999L7.84999 20.1299C7.60732 20.0212 7.41778 19.8205 7.32308 19.572C7.22837 19.3235 7.23626 19.0476 7.34499 18.8049C7.45373 18.5623 7.65442 18.3727 7.9029 18.278C8.15139 18.1833 8.42732 18.1912 8.66999 18.2999L11.19 19.4399V14.3499C11.19 14.0847 11.2954 13.8304 11.4829 13.6428C11.6704 13.4553 11.9248 13.3499 12.19 13.3499C12.4552 13.3499 12.7096 13.4553 12.8971 13.6428C13.0846 13.8304 13.19 14.0847 13.19 14.3499V20.9899C13.1908 21.1563 13.1501 21.3203 13.0715 21.467C12.9929 21.6137 12.879 21.7384 12.74 21.8299C12.574 21.9309 12.3842 21.9861 12.19 21.9899Z" fill="#1E5630"/>
</svg>
