<svg width="414" height="252" viewBox="0 0 414 252" fill="none" xmlns="http://www.w3.org/2000/svg">
<path d="M1 1V23.2672H206.267L184 1H1Z" fill="#055300"/>
<path d="M1 23.2672V1H184M1 23.2672H206.267L184 1M1 23.2672V251H413V34.5172H224.5L190.983 1L184 1" stroke="#1F8C44" stroke-width="2"/>
<path d="M76.875 19H74.8984L69.8281 10.9297V19H67.8516V7.625H69.8281L74.9141 15.7266V7.625H76.875V19ZM80.8984 11.4688C81.5182 10.75 82.3021 10.3906 83.25 10.3906C85.0521 10.3906 85.9661 11.4193 85.9922 13.4766V19H84.0938V13.5469C84.0938 12.9635 83.9661 12.5521 83.7109 12.3125C83.4609 12.0677 83.0911 11.9453 82.6016 11.9453C81.8411 11.9453 81.2734 12.2839 80.8984 12.9609V19H79V7H80.8984V11.4688ZM87.5625 14.6953C87.5625 13.8672 87.7266 13.1224 88.0547 12.4609C88.3828 11.7943 88.8438 11.2839 89.4375 10.9297C90.0312 10.5703 90.7135 10.3906 91.4844 10.3906C92.625 10.3906 93.5495 10.7578 94.2578 11.4922C94.9714 12.2266 95.3568 13.2005 95.4141 14.4141L95.4219 14.8594C95.4219 15.6927 95.2604 16.4375 94.9375 17.0938C94.6198 17.75 94.1615 18.2578 93.5625 18.6172C92.9688 18.9766 92.2812 19.1562 91.5 19.1562C90.3073 19.1562 89.3516 18.7604 88.6328 17.9688C87.9193 17.1719 87.5625 16.112 87.5625 14.7891V14.6953ZM89.4609 14.8594C89.4609 15.7292 89.6406 16.4115 90 16.9062C90.3594 17.3958 90.8594 17.6406 91.5 17.6406C92.1406 17.6406 92.638 17.3906 92.9922 16.8906C93.3516 16.3906 93.5312 15.6589 93.5312 14.6953C93.5312 13.8411 93.3464 13.1641 92.9766 12.6641C92.612 12.1641 92.1146 11.9141 91.4844 11.9141C90.8646 11.9141 90.3724 12.1615 90.0078 12.6562C89.6432 13.1458 89.4609 13.8802 89.4609 14.8594ZM92.0078 7H94.1719L92.0078 9.36719H90.4844L92.0078 7ZM98.8125 10.5469L98.8672 11.4297C99.4609 10.737 100.273 10.3906 101.305 10.3906C102.435 10.3906 103.208 10.8229 103.625 11.6875C104.24 10.8229 105.104 10.3906 106.219 10.3906C107.151 10.3906 107.844 10.6484 108.297 11.1641C108.755 11.6797 108.99 12.4401 109 13.4453V19H107.102V13.5C107.102 12.9635 106.984 12.5703 106.75 12.3203C106.516 12.0703 106.128 11.9453 105.586 11.9453C105.154 11.9453 104.799 12.0625 104.523 12.2969C104.253 12.526 104.062 12.8281 103.953 13.2031L103.961 19H102.062V13.4375C102.036 12.4427 101.529 11.9453 100.539 11.9453C99.7786 11.9453 99.2396 12.2552 98.9219 12.875V19H97.0234V10.5469H98.8125ZM117.68 7.625L120.961 16.3438L124.234 7.625H126.789V19H124.82V15.25L125.016 10.2344L121.656 19H120.242L116.891 10.2422L117.086 15.25V19H115.117V7.625H117.68ZM128.594 14.6953C128.594 13.8568 128.755 13.1094 129.078 12.4531C129.406 11.7917 129.867 11.2839 130.461 10.9297C131.055 10.5703 131.737 10.3906 132.508 10.3906C133.68 10.3906 134.625 10.7786 135.344 11.5547C135.62 11.4557 135.82 11.2682 135.945 10.9922C136.07 10.7161 136.133 10.2812 136.133 9.6875H137.438C137.438 10.3854 137.323 10.9688 137.094 11.4375C136.865 11.901 136.482 12.2292 135.945 12.4219C136.273 13.0729 136.443 13.8099 136.453 14.6328V14.8594C136.453 15.6927 136.292 16.4375 135.969 17.0938C135.651 17.75 135.19 18.2578 134.586 18.6172C133.987 18.9766 133.299 19.1562 132.523 19.1562C131.341 19.1562 130.391 18.763 129.672 17.9766C128.953 17.1901 128.594 16.1276 128.594 14.7891V14.6953ZM130.484 14.8594C130.484 15.7292 130.664 16.4115 131.023 16.9062C131.383 17.3958 131.883 17.6406 132.523 17.6406C133.164 17.6406 133.661 17.3906 134.016 16.8906C134.375 16.3906 134.555 15.6589 134.555 14.6953C134.555 13.8255 134.37 13.1458 134 12.6562C133.635 12.1615 133.138 11.9141 132.508 11.9141C131.888 11.9141 131.396 12.1615 131.031 12.6562C130.667 13.1458 130.484 13.8802 130.484 14.8594ZM133.062 7H135.227L133.062 9.36719H131.539L133.062 7ZM140.203 19H138.305V10.5469H140.203V19ZM138.188 8.35156C138.188 8.0599 138.279 7.81771 138.461 7.625C138.648 7.43229 138.914 7.33594 139.258 7.33594C139.602 7.33594 139.867 7.43229 140.055 7.625C140.242 7.81771 140.336 8.0599 140.336 8.35156C140.336 8.63802 140.242 8.8776 140.055 9.07031C139.867 9.25781 139.602 9.35156 139.258 9.35156C138.914 9.35156 138.648 9.25781 138.461 9.07031C138.279 8.8776 138.188 8.63802 138.188 8.35156Z" fill="white"/>
</svg>
