<svg width="114" height="40" viewBox="0 0 114 40" fill="none" xmlns="http://www.w3.org/2000/svg">
<path d="M99.9902 39L113.757 1H13.6682L1.52588e-05 39H99.9902Z" fill="#9BC88B"/>
<path d="M113.757 1H13.6682M99.9902 39H1.52588e-05" stroke="#027541" stroke-width="1.5"/>
<path d="M67.257 22H46.257V19.6667H67.257V22ZM67.257 16.1667H46.257V13.8333H67.257V16.1667ZM67.257 10.3333H46.257V8H67.257V10.3333Z" fill="#2E3A59"/>
<path d="M48.5167 34.8164H52.3898V36H47.0343V27.4688H48.5167V34.8164ZM53.1222 32.7715C53.1222 32.1426 53.2433 31.582 53.4855 31.0898C53.7316 30.5938 54.0773 30.2129 54.5226 29.9473C54.9679 29.6777 55.4796 29.543 56.0577 29.543C56.9366 29.543 57.6456 29.834 58.1847 30.416C58.3917 30.3418 58.5421 30.2012 58.6359 29.9941C58.7296 29.7871 58.7765 29.4609 58.7765 29.0156H59.755C59.755 29.5391 59.6691 29.9766 59.4972 30.3281C59.3253 30.6758 59.0382 30.9219 58.6359 31.0664C58.882 31.5547 59.0089 32.1074 59.0167 32.7246V32.8945C59.0167 33.5195 58.8956 34.0781 58.6534 34.5703C58.4152 35.0625 58.0695 35.4434 57.6163 35.7129C57.1671 35.9824 56.6515 36.1172 56.0695 36.1172C55.1827 36.1172 54.4698 35.8223 53.9308 35.2324C53.3917 34.6426 53.1222 33.8457 53.1222 32.8418V32.7715ZM54.5402 32.8945C54.5402 33.5469 54.6749 34.0586 54.9445 34.4297C55.214 34.7969 55.589 34.9805 56.0695 34.9805C56.5499 34.9805 56.923 34.793 57.1886 34.418C57.4581 34.043 57.5929 33.4941 57.5929 32.7715C57.5929 32.1191 57.4542 31.6094 57.1769 31.2422C56.9034 30.8711 56.5304 30.6855 56.0577 30.6855C55.5929 30.6855 55.2238 30.8711 54.9503 31.2422C54.6769 31.6094 54.5402 32.1602 54.5402 32.8945ZM56.4738 27H58.0968L56.4738 28.7754H55.3312L56.4738 27ZM65.8663 32.8945C65.8663 33.875 65.6437 34.6582 65.1984 35.2441C64.7531 35.8262 64.1554 36.1172 63.4054 36.1172C62.7101 36.1172 62.1534 35.8887 61.7355 35.4316V38.4375H60.3116V29.6602H61.6241L61.6827 30.3047C62.1007 29.7969 62.6691 29.543 63.3878 29.543C64.1613 29.543 64.7667 29.832 65.2042 30.4102C65.6456 30.9844 65.8663 31.7832 65.8663 32.8066V32.8945ZM64.4484 32.7715C64.4484 32.1387 64.3214 31.6367 64.0675 31.2656C63.8175 30.8945 63.4581 30.709 62.9894 30.709C62.4073 30.709 61.9894 30.9492 61.7355 31.4297V34.2422C61.9933 34.7344 62.4152 34.9805 63.0011 34.9805C63.4542 34.9805 63.8077 34.7988 64.0616 34.4355C64.3195 34.0684 64.4484 33.5137 64.4484 32.7715Z" fill="#2E3A59"/>
</svg>
