<svg width="414" height="735" viewBox="0 0 414 735" fill="none" xmlns="http://www.w3.org/2000/svg">
<path d="M-11.8472 116.981L10.6996 116.981L26.6426 132.923L26.6426 155.47L10.6996 171.413L-11.8472 171.413L-27.7902 155.47L-27.7902 132.923L-11.8472 116.981Z" stroke="#ADCCA4"/>
<path d="M-19.677 97.6342L18.1772 97.6342L44.9441 124.401L44.9441 162.255L18.1772 189.022L-19.677 189.022L-46.4439 162.255L-46.4439 124.401L-19.677 97.6342Z" stroke="#ADCCA4"/>
<path d="M-26.5067 79.2878L26.6548 79.2878L64.2456 116.879L64.2456 170.04L26.6548 207.631L-26.5067 207.631L-64.0975 170.04L-64.0975 116.879L-26.5067 79.2878Z" stroke="#ADCCA4"/>
<path d="M-34.3364 60.9415L34.1324 60.9415L82.5471 109.356L82.5471 177.825L34.1324 226.24L-34.3364 226.24L-82.7512 177.825L-82.7512 109.356L-34.3364 60.9415Z" stroke="#ADCCA4"/>
<path d="M-42.1662 42.5952L41.61 42.5952L100.849 101.834L100.849 185.61L41.61 244.849L-42.1662 244.849L-101.405 185.61L-101.405 101.834L-42.1662 42.5952Z" stroke="#ADCCA4"/>
<path d="M-25.5706 636.526L23.3012 636.526L57.8587 671.083L57.8587 719.955L23.3011 754.513L-25.5706 754.513L-60.1281 719.955L-60.1281 671.084L-25.5706 636.526Z" stroke="#ADCCA4"/>
<path d="M-42.3772 594.999L39.3519 594.999L97.143 652.79L97.143 734.519L39.3518 792.31L-42.3772 792.31L-100.168 734.519L-100.168 652.79L-42.3772 594.999Z" stroke="#ADCCA4"/>
<path d="M-57.0372 555.619L57.5492 555.619L138.574 636.643L138.574 751.23L57.5491 832.254L-57.0372 832.254L-138.062 751.23L-138.062 636.643L-57.0372 555.619Z" stroke="#ADCCA4"/>
<path d="M-73.8439 516.238L73.5997 516.238L177.858 620.496L177.858 767.94L73.5997 872.198L-73.8438 872.198L-178.102 767.94L-178.102 620.496L-73.8439 516.238Z" stroke="#ADCCA4"/>
<path d="M-90.6505 476.858L89.6504 476.858L217.142 604.35L217.142 784.65L89.6504 912.142L-90.6505 912.142L-218.142 784.65L-218.142 604.35L-90.6505 476.858Z" stroke="#ADCCA4"/>
<path d="M300.263 228L355.263 323.263L300.263 418.526L190.263 418.526L135.263 323.263L190.263 228L300.263 228Z" fill="#E0F2D7" fill-opacity="0.7"/>
<path d="M473.263 130L528.263 225.263L473.263 320.526L363.263 320.526L308.263 225.263L363.263 130L473.263 130Z" fill="#E0F2D7" fill-opacity="0.7"/>
</svg>
