<svg width="42" height="52" viewBox="0 0 42 52" fill="none" xmlns="http://www.w3.org/2000/svg">
<path d="M38 1H15.0059C14.2663 1 13.5527 1.27325 13.0022 1.76727L1.99627 11.6444C1.36222 12.2134 1 13.0252 1 13.8771V48C1 49.6569 2.34314 51 4 51H26.9941C27.7337 51 28.4473 50.7268 28.9978 50.2327L40.0037 40.3556C40.6378 39.7866 41 38.9748 41 38.1229V4C41 2.34315 39.6569 1 38 1Z" fill="#1F8C44" stroke="#027541"/>
<path d="M21.4286 43.5C19.293 43.4906 17.5613 41.9443 17.5402 40.0278H25.2783C25.2824 40.4919 25.1837 40.9522 24.9881 41.3819C24.4806 42.4271 23.444 43.1894 22.2024 43.4306H22.1927H22.1637H22.1289H22.1115C21.8867 43.4726 21.6581 43.4958 21.4286 43.5ZM36.9048 38.2917H5.95239V34.8194L9.82144 33.0833V23.5347C9.71952 21.0853 10.3359 18.6547 11.6089 16.4861C12.8761 14.4748 15.0421 13.0467 17.5595 12.5625V8.77777H25.2976V12.5625C30.2868 13.6285 33.0357 17.5243 33.0357 23.5347V33.0833L36.9048 34.8194V38.2917Z" fill="white"/>
</svg>
