<svg width="126" height="48" viewBox="0 0 126 48" fill="none" xmlns="http://www.w3.org/2000/svg">
<path d="M38.5625 25.4375C38.5625 29.8958 37.7917 33.8125 36.25 37.1875C34.7083 40.5417 32.5 43.125 29.625 44.9375C26.7708 46.7292 23.4792 47.625 19.75 47.625C16.0625 47.625 12.7708 46.7292 9.875 44.9375C7 43.125 4.77083 40.5521 3.1875 37.2188C1.625 33.8854 0.833333 30.0417 0.8125 25.6875V23.125C0.8125 18.6875 1.59375 14.7708 3.15625 11.375C4.73958 7.97917 6.95833 5.38542 9.8125 3.59375C12.6875 1.78125 15.9792 0.875 19.6875 0.875C23.3958 0.875 26.6771 1.77083 29.5312 3.5625C32.4062 5.33333 34.625 7.89583 36.1875 11.25C37.75 14.5833 38.5417 18.4688 38.5625 22.9062V25.4375ZM30.6562 23.0625C30.6562 18.0208 29.6979 14.1562 27.7812 11.4688C25.8854 8.78125 23.1875 7.4375 19.6875 7.4375C16.2708 7.4375 13.5938 8.78125 11.6562 11.4688C9.73958 14.1354 8.76042 17.9167 8.71875 22.8125V25.4375C8.71875 30.4375 9.6875 34.3021 11.625 37.0312C13.5833 39.7604 16.2917 41.125 19.75 41.125C23.25 41.125 25.9375 39.7917 27.8125 37.125C29.7083 34.4583 30.6562 30.5625 30.6562 25.4375V23.0625ZM71.2188 36.4062H53.5938L49.9062 47H41.6875L58.875 1.5H65.9688L83.1875 47H74.9375L71.2188 36.4062ZM55.8125 30.0312H69L62.4062 11.1562L55.8125 30.0312ZM113.844 36.4062H96.2188L92.5312 47H84.3125L101.5 1.5H108.594L125.812 47H117.562L113.844 36.4062ZM98.4375 30.0312H111.625L105.031 11.1562L98.4375 30.0312Z" fill="#0D3C0A"/>
</svg>
