<svg width="255" height="42" viewBox="0 0 255 42" fill="none" xmlns="http://www.w3.org/2000/svg">
<path d="M4.18143 1.00049L243.531 1.00066C244.271 1.00066 244.984 1.27391 245.535 1.76793L253.004 8.47067C253.638 9.03969 254 9.85145 254 10.7034V38.0007C254 39.6575 252.657 41.0007 251 41.0007L11.3402 41.0005C10.5467 41.0005 9.78546 40.6861 9.22321 40.1261L2.06442 32.9963C1.49918 32.4333 1.18143 31.6684 1.18143 30.8707V4.00049C1.18143 2.34364 2.52457 1.00049 4.18143 1.00049Z" fill="#1F8C44" stroke="#027541"/>
<path d="M123.681 30.857L115.431 22.607L117.788 20.2503L123.684 26.1395L123.681 26.142L137.823 12.0003L140.179 14.357L126.038 28.5003L123.683 30.8553L123.681 30.857Z" fill="#04CF31"/>
</svg>
