<svg width="133" height="42" viewBox="0 0 133 42" fill="none" xmlns="http://www.w3.org/2000/svg">
<path d="M128.998 1H11.4688C10.7291 1 10.0155 1.27325 9.46503 1.76727L1.99627 8.47001C1.36222 9.03903 1 9.85079 1 10.7027V38C1 39.6569 2.34314 41 4 41H121.839C122.632 41 123.394 40.6856 123.956 40.1256L131.115 32.9958C131.68 32.4329 131.998 31.668 131.998 30.8702V4C131.998 2.34315 130.655 1 128.998 1Z" fill="#1F8C44" stroke="#027541"/>
<path d="M62.25 29.8567L54 21.6067L56.3567 19.25L62.2525 25.1392L62.25 25.1417L76.3917 11L78.7483 13.3567L64.6067 27.5L62.2517 29.855L62.25 29.8567Z" fill="#04CF31"/>
</svg>
