<svg width="133" height="42" viewBox="0 0 133 42" fill="none" xmlns="http://www.w3.org/2000/svg">
<path d="M128.998 1H11.469C10.7293 1 10.0158 1.27325 9.46527 1.76727L1.99651 8.47001C1.36246 9.03903 1.00024 9.85079 1.00024 10.7027V38C1.00024 39.6569 2.34339 41 4.00024 41H121.839C122.633 41 123.394 40.6856 123.956 40.1256L131.115 32.9958C131.68 32.4329 131.998 31.668 131.998 30.8702V4C131.998 2.34315 130.655 1 128.998 1Z" fill="#1F8C44" stroke="#027541"/>
<path d="M75.6503 9.00008L66.3337 18.3167L57.017 9.00008L54.667 11.3501L63.9837 20.6667L54.667 29.9834L57.017 32.3334L66.3337 23.0167L75.6503 32.3334L78.0003 29.9834L68.6837 20.6667L78.0003 11.3501L75.6503 9.00008Z" fill="#9F3030"/>
</svg>
