<svg width="42" height="52" viewBox="0 0 42 52" fill="none" xmlns="http://www.w3.org/2000/svg">
<path d="M38 1H15.0059C14.2663 1 13.5527 1.27325 13.0022 1.76727L1.99627 11.6444C1.36222 12.2134 1 13.0252 1 13.8771V48C1 49.6569 2.34314 51 4 51H26.9941C27.7337 51 28.4473 50.7268 28.9978 50.2327L40.0037 40.3556C40.6378 39.7866 41 38.9748 41 38.1229V4C41 2.34315 39.6569 1 38 1Z" fill="#1F8C44" stroke="#027541"/>
<path d="M23.814 41H18.1865C17.4601 41 16.8315 40.5095 16.6761 39.821L16.0469 36.995C15.2075 36.6382 14.4115 36.1919 13.6737 35.6645L10.8337 36.542C10.1411 36.7563 9.38815 36.4735 9.02486 35.8625L6.20493 31.136C5.84562 30.5248 5.96941 29.7537 6.50331 29.2775L8.70638 27.3275C8.6062 26.4442 8.6062 25.5528 8.70638 24.6695L6.50331 22.724C5.96862 22.2476 5.84478 21.4756 6.20493 20.864L9.01868 16.1345C9.38197 15.5235 10.1349 15.2407 10.8275 15.455L13.6675 16.3325C14.0449 16.0612 14.4377 15.8108 14.8441 15.5825C15.2342 15.369 15.6357 15.1758 16.0469 15.0035L16.6776 12.1805C16.8323 11.492 17.4602 11.0007 18.1865 11H23.814C24.5404 11.0007 25.1682 11.492 25.3229 12.1805L25.9599 15.005C26.394 15.1903 26.8168 15.3996 27.2261 15.632C27.6084 15.8462 27.9779 16.081 28.333 16.3355L31.1746 15.458C31.8668 15.2445 32.6188 15.5272 32.9819 16.1375L35.7956 20.867C36.155 21.4782 36.0312 22.2493 35.4973 22.7255L33.2942 24.6755C33.3944 25.5588 33.3944 26.4502 33.2942 27.3335L35.4973 29.2835C36.0312 29.7597 36.155 30.5308 35.7956 31.142L32.9819 35.8715C32.6188 36.4818 31.8668 36.7645 31.1746 36.551L28.333 35.6735C27.9735 35.9304 27.5998 36.1683 27.2137 36.386C26.8084 36.6139 26.3903 36.8197 25.9614 37.0025L25.3229 39.821C25.1676 40.509 24.5399 40.9994 23.814 41ZM20.9941 20C17.5787 20 14.81 22.6863 14.81 26C14.81 29.3137 17.5787 32 20.9941 32C24.4095 32 27.1782 29.3137 27.1782 26C27.1782 22.6863 24.4095 20 20.9941 20Z" fill="white"/>
</svg>
