<svg width="128" height="40" viewBox="0 0 128 40" fill="none" xmlns="http://www.w3.org/2000/svg">
<path d="M124.085 1H11.1193C10.3796 1 9.66601 1.27325 9.11553 1.76727L1.99627 8.15635C1.36222 8.72537 1 9.53714 1 10.3891V36C1 37.6569 2.34315 39 4 39H116.966C117.706 39 118.419 38.7267 118.97 38.2327L126.089 31.8436C126.723 31.2746 127.085 30.4629 127.085 29.6109V4C127.085 2.34315 125.742 1 124.085 1Z" fill="#1F8C44" stroke="#027541"/>
<path d="M32.0001 20L47.0001 28.6603L47.0001 11.3397L32.0001 20ZM97.0001 18.5L45.5001 18.5L45.5001 21.5L97.0001 21.5L97.0001 18.5Z" fill="white"/>
</svg>
