<svg width="117" height="40" viewBox="0 0 117 40" fill="none" xmlns="http://www.w3.org/2000/svg">
<path d="M101.233 39L115 1H14.9114L1.24318 39H101.233Z" fill="#1F8C44" stroke="#027541" stroke-width="1.5"/>
<path d="M68.5001 22H47.5001V19.6667H68.5001V22ZM68.5001 16.1667H47.5001V13.8333H68.5001V16.1667ZM68.5001 10.3333H47.5001V8H68.5001V10.3333Z" fill="white"/>
<path d="M49.7598 34.8164H53.6328V36H48.2773V27.4688H49.7598V34.8164ZM54.3652 32.7715C54.3652 32.1426 54.4863 31.582 54.7285 31.0898C54.9746 30.5938 55.3203 30.2129 55.7656 29.9473C56.2109 29.6777 56.7227 29.543 57.3008 29.543C58.1797 29.543 58.8887 29.834 59.4277 30.416C59.6348 30.3418 59.7852 30.2012 59.8789 29.9941C59.9727 29.7871 60.0195 29.4609 60.0195 29.0156H60.998C60.998 29.5391 60.9121 29.9766 60.7402 30.3281C60.5684 30.6758 60.2812 30.9219 59.8789 31.0664C60.125 31.5547 60.252 32.1074 60.2598 32.7246V32.8945C60.2598 33.5195 60.1387 34.0781 59.8965 34.5703C59.6582 35.0625 59.3125 35.4434 58.8594 35.7129C58.4102 35.9824 57.8945 36.1172 57.3125 36.1172C56.4258 36.1172 55.7129 35.8223 55.1738 35.2324C54.6348 34.6426 54.3652 33.8457 54.3652 32.8418V32.7715ZM55.7832 32.8945C55.7832 33.5469 55.918 34.0586 56.1875 34.4297C56.457 34.7969 56.832 34.9805 57.3125 34.9805C57.793 34.9805 58.166 34.793 58.4316 34.418C58.7012 34.043 58.8359 33.4941 58.8359 32.7715C58.8359 32.1191 58.6973 31.6094 58.4199 31.2422C58.1465 30.8711 57.7734 30.6855 57.3008 30.6855C56.8359 30.6855 56.4668 30.8711 56.1934 31.2422C55.9199 31.6094 55.7832 32.1602 55.7832 32.8945ZM57.7168 27H59.3398L57.7168 28.7754H56.5742L57.7168 27ZM67.1094 32.8945C67.1094 33.875 66.8867 34.6582 66.4414 35.2441C65.9961 35.8262 65.3984 36.1172 64.6484 36.1172C63.9531 36.1172 63.3965 35.8887 62.9785 35.4316V38.4375H61.5547V29.6602H62.8672L62.9258 30.3047C63.3438 29.7969 63.9121 29.543 64.6309 29.543C65.4043 29.543 66.0098 29.832 66.4473 30.4102C66.8887 30.9844 67.1094 31.7832 67.1094 32.8066V32.8945ZM65.6914 32.7715C65.6914 32.1387 65.5645 31.6367 65.3105 31.2656C65.0605 30.8945 64.7012 30.709 64.2324 30.709C63.6504 30.709 63.2324 30.9492 62.9785 31.4297V34.2422C63.2363 34.7344 63.6582 34.9805 64.2441 34.9805C64.6973 34.9805 65.0508 34.7988 65.3047 34.4355C65.5625 34.0684 65.6914 33.5137 65.6914 32.7715Z" fill="white"/>
</svg>
