<svg width="414" height="252" viewBox="0 0 414 252" fill="none" xmlns="http://www.w3.org/2000/svg">
<path d="M1 1V23.2672H206.267L184 1H1Z" fill="#055300"/>
<path d="M1 23.2672V1H184M1 23.2672H206.267L184 1M1 23.2672V251H413V34.5172H224.5L190.983 1L184 1" stroke="#1F8C44" stroke-width="2"/>
<path d="M47.4297 18H45.4531L40.3828 9.92969V18H38.4062V6.625H40.3828L45.4688 14.7266V6.625H47.4297V18ZM51.4531 10.4688C52.0729 9.75 52.8568 9.39062 53.8047 9.39062C55.6068 9.39062 56.5208 10.4193 56.5469 12.4766V18H54.6484V12.5469C54.6484 11.9635 54.5208 11.5521 54.2656 11.3125C54.0156 11.0677 53.6458 10.9453 53.1562 10.9453C52.3958 10.9453 51.8281 11.2839 51.4531 11.9609V18H49.5547V6H51.4531V10.4688ZM60.4922 18H58.5938V9.54688H60.4922V18ZM58.4766 7.35156C58.4766 7.0599 58.5677 6.81771 58.75 6.625C58.9375 6.43229 59.2031 6.33594 59.5469 6.33594C59.8906 6.33594 60.1562 6.43229 60.3438 6.625C60.5312 6.81771 60.625 7.0599 60.625 7.35156C60.625 7.63802 60.5312 7.8776 60.3438 8.07031C60.1562 8.25781 59.8906 8.35156 59.5469 8.35156C59.2031 8.35156 58.9375 8.25781 58.75 8.07031C58.5677 7.8776 58.4766 7.63802 58.4766 7.35156ZM66.2891 18.1562C65.0859 18.1562 64.1094 17.7786 63.3594 17.0234C62.6146 16.263 62.2422 15.2526 62.2422 13.9922V13.7578C62.2422 12.9141 62.4036 12.1615 62.7266 11.5C63.0547 10.8333 63.513 10.3151 64.1016 9.94531C64.6901 9.57552 65.3464 9.39062 66.0703 9.39062C67.2214 9.39062 68.1094 9.75781 68.7344 10.4922C69.3646 11.2266 69.6797 12.2656 69.6797 13.6094V14.375H64.1562C64.2135 15.0729 64.4453 15.625 64.8516 16.0312C65.263 16.4375 65.7786 16.6406 66.3984 16.6406C67.2682 16.6406 67.9766 16.2891 68.5234 15.5859L69.5469 16.5625C69.2083 17.0677 68.7552 17.4609 68.1875 17.7422C67.625 18.0182 66.9922 18.1562 66.2891 18.1562ZM66.0625 10.9141C65.5417 10.9141 65.1198 11.0964 64.7969 11.4609C64.4792 11.8255 64.276 12.3333 64.1875 12.9844H67.8047V12.8438C67.763 12.2083 67.5938 11.7292 67.2969 11.4062C67 11.0781 66.5885 10.9141 66.0625 10.9141ZM68.625 8.16406V8.25H67.1016L65.9297 7.03125L64.7656 8.25H63.2578V8.14844L65.375 5.99219H66.4922L68.625 8.16406ZM64.9297 19.8828C64.9297 19.6068 65.0208 19.375 65.2031 19.1875C65.3906 19.0052 65.6562 18.9141 66 18.9141C66.3438 18.9141 66.6094 19.0052 66.7969 19.1875C66.9844 19.375 67.0781 19.6068 67.0781 19.8828C67.0781 20.1589 66.9844 20.388 66.7969 20.5703C66.6094 20.7526 66.3438 20.8438 66 20.8438C65.6562 20.8438 65.3906 20.7526 65.2031 20.5703C65.0208 20.388 64.9297 20.1589 64.9297 19.8828ZM72.9453 9.54688L73 10.4297C73.5938 9.73698 74.4062 9.39062 75.4375 9.39062C76.5677 9.39062 77.3411 9.82292 77.7578 10.6875C78.3724 9.82292 79.237 9.39062 80.3516 9.39062C81.2839 9.39062 81.9766 9.64844 82.4297 10.1641C82.888 10.6797 83.1224 11.4401 83.1328 12.4453V18H81.2344V12.5C81.2344 11.9635 81.1172 11.5703 80.8828 11.3203C80.6484 11.0703 80.2604 10.9453 79.7188 10.9453C79.2865 10.9453 78.9323 11.0625 78.6562 11.2969C78.3854 11.526 78.1953 11.8281 78.0859 12.2031L78.0938 18H76.1953V12.4375C76.1693 11.4427 75.6615 10.9453 74.6719 10.9453C73.9115 10.9453 73.3724 11.2552 73.0547 11.875V18H71.1562V9.54688H72.9453ZM93.2578 15.5234L96.1484 6.625H98.3203L94.2266 18H92.3125L88.2344 6.625H90.3984L93.2578 15.5234ZM104.328 17.1719C103.771 17.8281 102.979 18.1562 101.953 18.1562C101.036 18.1562 100.341 17.888 99.8672 17.3516C99.3984 16.8151 99.1641 16.0391 99.1641 15.0234V9.54688H101.062V15C101.062 16.0729 101.508 16.6094 102.398 16.6094C103.32 16.6094 103.943 16.2786 104.266 15.6172V9.54688H106.164V18H104.375L104.328 17.1719ZM100.969 19.8828C100.969 19.6068 101.06 19.375 101.242 19.1875C101.43 19.0052 101.695 18.9141 102.039 18.9141C102.383 18.9141 102.648 19.0052 102.836 19.1875C103.023 19.375 103.117 19.6068 103.117 19.8828C103.117 20.1589 103.023 20.388 102.836 20.5703C102.648 20.7526 102.383 20.8438 102.039 20.8438C101.695 20.8438 101.43 20.7526 101.242 20.5703C101.06 20.388 100.969 20.1589 100.969 19.8828ZM121.297 18H119.328V12.9453H114.242V18H112.266V6.625H114.242V11.3594H119.328V6.625H121.297V18ZM125.477 18H123.578V9.54688H125.477V18ZM123.461 7.35156C123.461 7.0599 123.552 6.81771 123.734 6.625C123.922 6.43229 124.188 6.33594 124.531 6.33594C124.875 6.33594 125.141 6.43229 125.328 6.625C125.516 6.81771 125.609 7.0599 125.609 7.35156C125.609 7.63802 125.516 7.8776 125.328 8.07031C125.141 8.25781 124.875 8.35156 124.531 8.35156C124.188 8.35156 123.922 8.25781 123.734 8.07031C123.552 7.8776 123.461 7.63802 123.461 7.35156ZM131.273 18.1562C130.07 18.1562 129.094 17.7786 128.344 17.0234C127.599 16.263 127.227 15.2526 127.227 13.9922V13.7578C127.227 12.9141 127.388 12.1615 127.711 11.5C128.039 10.8333 128.497 10.3151 129.086 9.94531C129.674 9.57552 130.331 9.39062 131.055 9.39062C132.206 9.39062 133.094 9.75781 133.719 10.4922C134.349 11.2266 134.664 12.2656 134.664 13.6094V14.375H129.141C129.198 15.0729 129.43 15.625 129.836 16.0312C130.247 16.4375 130.763 16.6406 131.383 16.6406C132.253 16.6406 132.961 16.2891 133.508 15.5859L134.531 16.5625C134.193 17.0677 133.74 17.4609 133.172 17.7422C132.609 18.0182 131.977 18.1562 131.273 18.1562ZM131.047 10.9141C130.526 10.9141 130.104 11.0964 129.781 11.4609C129.464 11.8255 129.26 12.3333 129.172 12.9844H132.789V12.8438C132.747 12.2083 132.578 11.7292 132.281 11.4062C131.984 11.0781 131.573 10.9141 131.047 10.9141ZM133.609 8.16406V8.25H132.086L130.914 7.03125L129.75 8.25H128.242V8.14844L130.359 5.99219H131.477L133.609 8.16406ZM129.914 19.8828C129.914 19.6068 130.005 19.375 130.188 19.1875C130.375 19.0052 130.641 18.9141 130.984 18.9141C131.328 18.9141 131.594 19.0052 131.781 19.1875C131.969 19.375 132.062 19.6068 132.062 19.8828C132.062 20.1589 131.969 20.388 131.781 20.5703C131.594 20.7526 131.328 20.8438 130.984 20.8438C130.641 20.8438 130.375 20.7526 130.188 20.5703C130.005 20.388 129.914 20.1589 129.914 19.8828ZM137.906 9.54688L137.961 10.5234C138.586 9.76823 139.406 9.39062 140.422 9.39062C142.182 9.39062 143.078 10.3984 143.109 12.4141V18H141.211V12.5234C141.211 11.987 141.094 11.5911 140.859 11.3359C140.63 11.0755 140.253 10.9453 139.727 10.9453C138.961 10.9453 138.391 11.2917 138.016 11.9844V18H136.117V9.54688H137.906ZM156.969 8.21875H153.422V18H151.461V8.21875H147.945V6.625H156.969V8.21875ZM162.023 18C161.94 17.8385 161.867 17.5755 161.805 17.2109C161.201 17.8411 160.461 18.1562 159.586 18.1562C158.737 18.1562 158.044 17.9141 157.508 17.4297C156.971 16.9453 156.703 16.3464 156.703 15.6328C156.703 14.7318 157.036 14.0417 157.703 13.5625C158.375 13.0781 159.333 12.8359 160.578 12.8359H161.742V12.2812C161.742 11.8438 161.62 11.4948 161.375 11.2344C161.13 10.9688 160.758 10.8359 160.258 10.8359C159.826 10.8359 159.471 10.9453 159.195 11.1641C158.919 11.3776 158.781 11.651 158.781 11.9844H156.883C156.883 11.5208 157.036 11.0885 157.344 10.6875C157.651 10.2812 158.068 9.96354 158.594 9.73438C159.125 9.50521 159.716 9.39062 160.367 9.39062C161.357 9.39062 162.146 9.64062 162.734 10.1406C163.323 10.6354 163.625 11.3333 163.641 12.2344V16.0469C163.641 16.8073 163.747 17.4141 163.961 17.8672V18H162.023ZM159.938 16.6328C160.312 16.6328 160.664 16.5417 160.992 16.3594C161.326 16.1771 161.576 15.9323 161.742 15.625V14.0312H160.719C160.016 14.0312 159.487 14.1536 159.133 14.3984C158.779 14.6432 158.602 14.9896 158.602 15.4375C158.602 15.8021 158.721 16.0938 158.961 16.3125C159.206 16.526 159.531 16.6328 159.938 16.6328ZM158.719 19.8281C158.719 19.5521 158.81 19.3203 158.992 19.1328C159.18 18.9505 159.445 18.8594 159.789 18.8594C160.133 18.8594 160.398 18.9505 160.586 19.1328C160.773 19.3203 160.867 19.5521 160.867 19.8281C160.867 20.1042 160.773 20.3333 160.586 20.5156C160.398 20.6979 160.133 20.7891 159.789 20.7891C159.445 20.7891 159.18 20.6979 158.992 20.5156C158.81 20.3333 158.719 20.1042 158.719 19.8281ZM167.648 18H165.75V9.54688H167.648V18ZM165.633 7.35156C165.633 7.0599 165.724 6.81771 165.906 6.625C166.094 6.43229 166.359 6.33594 166.703 6.33594C167.047 6.33594 167.312 6.43229 167.5 6.625C167.688 6.81771 167.781 7.0599 167.781 7.35156C167.781 7.63802 167.688 7.8776 167.5 8.07031C167.312 8.25781 167.047 8.35156 166.703 8.35156C166.359 8.35156 166.094 8.25781 165.906 8.07031C165.724 7.8776 165.633 7.63802 165.633 7.35156Z" fill="white"/>
</svg>
