<svg width="128" height="40" viewBox="0 0 128 40" fill="none" xmlns="http://www.w3.org/2000/svg">
<path d="M124 1H11.0342C10.2945 1 9.58093 1.27325 9.03045 1.76727L1.91119 8.15635C1.27714 8.72537 0.914917 9.53714 0.914917 10.3891V36.5C0.914917 38.1569 2.25806 39.5 3.91491 39.5H117.176C117.969 39.5 118.731 39.1856 119.293 38.6256L126.117 31.829C126.682 31.266 127 30.5011 127 29.7033V4C127 2.34315 125.657 1 124 1Z" fill="#1F8C44" stroke="#027541"/>
<path d="M65.6105 33.4867C66.1046 33.2423 66.4167 32.7428 66.4167 32.1964V24.4373C66.4167 24.0548 66.5703 23.6879 66.8438 23.4173L75.7704 14.5876C76.3173 14.0466 76.625 13.3124 76.625 12.5464V8.81751C76.625 8.0198 75.9731 7.375 75.1667 7.375H51.8333C51.0269 7.375 50.375 8.0198 50.375 8.81751V12.5464C50.375 13.3124 50.6827 14.0466 51.2296 14.5876L60.1562 23.4173C60.4297 23.6879 60.5833 24.0548 60.5833 24.4373V33.639C60.5833 34.7113 61.7242 35.4087 62.6939 34.9292L65.6105 33.4867Z" fill="white"/>
</svg>
