<svg width="35" height="30" viewBox="0 0 35 30" fill="none" xmlns="http://www.w3.org/2000/svg">
<rect x="15" y="9" width="4" height="17" fill="white"/>
<path d="M32.555 29.9985H1.66662C1.07119 29.9985 0.520992 29.6808 0.223281 29.1651C-0.0744306 28.6495 -0.0744266 28.0141 0.223291 27.4985L15.6666 0.831819C15.9646 0.317004 16.5143 0 17.1091 0C17.7039 0 18.2537 0.317004 18.5516 0.831819L33.995 27.4985C34.2925 28.0139 34.2927 28.6489 33.9954 29.1644C33.6981 29.68 33.1484 29.9979 32.5533 29.9985H32.555ZM15.445 21.6652V24.9985H17H17.1083H17.2166H18.775V21.6652H15.445ZM15.445 9.99849V18.3318H18.7783V9.99849H15.445Z" fill="#B42A2A"/>
</svg>
