<svg width="117" height="40" viewBox="0 0 117 40" fill="none" xmlns="http://www.w3.org/2000/svg">
<path d="M101.233 39L115 1H14.9113L1.24306 39H101.233Z" fill="#1F8C44" stroke="#027541" stroke-width="1.5"/>
<path d="M54.5 4.5C51.2784 4.5 48.6667 7.11167 48.6667 10.3333C48.6667 13.555 51.2784 16.1667 54.5 16.1667C57.7217 16.1667 60.3334 13.555 60.3334 10.3333C60.3334 7.11167 57.7217 4.5 54.5 4.5ZM51 10.3333C51 8.40034 52.567 6.83333 54.5 6.83333C56.433 6.83333 58 8.40034 58 10.3333C58 12.2663 56.433 13.8333 54.5 13.8333C52.567 13.8333 51 12.2663 51 10.3333Z" fill="white"/>
<path d="M63.7265 10.588C63.3983 10.4206 63.0351 10.3334 62.6667 10.3334V8.00007C63.4036 8.00007 64.13 8.17449 64.7864 8.50919C64.8587 8.54606 64.93 8.58475 65 8.62521C65.5663 8.95216 66.0584 9.39497 66.4436 9.92565C66.8764 10.522 67.1618 11.2124 67.2765 11.9403C67.3912 12.6681 67.3319 13.4128 67.1035 14.1134C66.875 14.814 66.4839 15.4505 65.9622 15.9708C65.4405 16.4912 64.803 16.8806 64.1018 17.1072C63.4779 17.3088 62.8194 17.3765 62.1692 17.3067C62.0887 17.2981 62.0084 17.2874 61.9282 17.2745C61.2011 17.158 60.512 16.8711 59.917 16.4372L59.9158 16.4363L61.2913 14.5515C61.5889 14.7687 61.9337 14.9122 62.2975 14.9705C62.6613 15.0288 63.0337 15.0002 63.3842 14.8869C63.7348 14.7736 64.0536 14.5789 64.3144 14.3187C64.5753 14.0585 64.7708 13.7403 64.885 13.39C64.9992 13.0397 65.0289 12.6674 64.9715 12.3035C64.9142 11.9395 64.7715 11.5944 64.5551 11.2962C64.3387 10.998 64.0548 10.7553 63.7265 10.588Z" fill="white"/>
<path d="M67.3312 25.5C67.3312 24.8875 67.2105 24.2809 66.9761 23.715C66.7417 23.1491 66.3981 22.6349 65.965 22.2017C65.5318 21.7686 65.0176 21.425 64.4517 21.1906C63.8858 20.9562 63.2793 20.8355 62.6667 20.8355V18.5C63.4625 18.5 64.2515 18.6357 65 18.9003C65.1162 18.9414 65.2314 18.9856 65.3455 19.0328C66.1948 19.3846 66.9664 19.9002 67.6165 20.5503C68.2665 21.2003 68.7821 21.9719 69.1339 22.8212C69.1811 22.9353 69.2253 23.0505 69.2664 23.1667C69.531 23.9152 69.6667 24.7042 69.6667 25.5H67.3312Z" fill="white"/>
<path d="M62.6667 25.5H60.3334C60.3334 22.2783 57.7217 19.6667 54.5 19.6667C51.2784 19.6667 48.6667 22.2783 48.6667 25.5H46.3334C46.3334 20.9897 49.9897 17.3333 54.5 17.3333C59.0104 17.3333 62.6667 20.9897 62.6667 25.5Z" fill="white"/>
<path d="M48.9043 36H47.4219L43.6191 29.9473V36H42.1367V27.4688H43.6191L47.4336 33.5449V27.4688H48.9043V36ZM51.9219 30.3516C52.3867 29.8125 52.9746 29.543 53.6855 29.543C55.0371 29.543 55.7227 30.3145 55.7422 31.8574V36H54.3184V31.9102C54.3184 31.4727 54.2227 31.1641 54.0312 30.9844C53.8438 30.8008 53.5664 30.709 53.1992 30.709C52.6289 30.709 52.2031 30.9629 51.9219 31.4707V36H50.498V27H51.9219V30.3516ZM56.9199 32.7715C56.9199 32.1504 57.043 31.5918 57.2891 31.0957C57.5352 30.5957 57.8809 30.2129 58.3262 29.9473C58.7715 29.6777 59.2832 29.543 59.8613 29.543C60.7168 29.543 61.4102 29.8184 61.9414 30.3691C62.4766 30.9199 62.7656 31.6504 62.8086 32.5605L62.8145 32.8945C62.8145 33.5195 62.6934 34.0781 62.4512 34.5703C62.2129 35.0625 61.8691 35.4434 61.4199 35.7129C60.9746 35.9824 60.459 36.1172 59.873 36.1172C58.9785 36.1172 58.2617 35.8203 57.7227 35.2266C57.1875 34.6289 56.9199 33.834 56.9199 32.8418V32.7715ZM58.3438 32.8945C58.3438 33.5469 58.4785 34.0586 58.748 34.4297C59.0176 34.7969 59.3926 34.9805 59.873 34.9805C60.3535 34.9805 60.7266 34.793 60.9922 34.418C61.2617 34.043 61.3965 33.4941 61.3965 32.7715C61.3965 32.1309 61.2578 31.623 60.9805 31.248C60.707 30.873 60.334 30.6855 59.8613 30.6855C59.3965 30.6855 59.0273 30.8711 58.7539 31.2422C58.4805 31.6094 58.3438 32.1602 58.3438 32.8945ZM60.2539 27H61.877L60.2539 28.7754H59.1113L60.2539 27ZM65.3574 29.6602L65.3984 30.3223C65.8438 29.8027 66.4531 29.543 67.2266 29.543C68.0742 29.543 68.6543 29.8672 68.9668 30.5156C69.4277 29.8672 70.0762 29.543 70.9121 29.543C71.6113 29.543 72.1309 29.7363 72.4707 30.123C72.8145 30.5098 72.9902 31.0801 72.998 31.834V36H71.5742V31.875C71.5742 31.4727 71.4863 31.1777 71.3105 30.9902C71.1348 30.8027 70.8438 30.709 70.4375 30.709C70.1133 30.709 69.8477 30.7969 69.6406 30.9727C69.4375 31.1445 69.2949 31.3711 69.2129 31.6523L69.2188 36H67.7949V31.8281C67.7754 31.082 67.3945 30.709 66.6523 30.709C66.082 30.709 65.6777 30.9414 65.4395 31.4062V36H64.0156V29.6602H65.3574Z" fill="white"/>
</svg>
