<svg width="115" height="40" viewBox="0 0 115 40" fill="none" xmlns="http://www.w3.org/2000/svg">
<path d="M100.99 39L114.757 1H28.1712H0.999947V39H100.99Z" fill="#9BC88B"/>
<path d="M114.76 1H1.003V39H100.993" stroke="#027541" stroke-width="1.5"/>
<path d="M62.9236 26.6667H46.5903C45.3016 26.6667 44.257 25.622 44.257 24.3334V8.00004C44.257 6.71138 45.3016 5.66671 46.5903 5.66671H48.9236V3.33337H51.257V5.66671H58.257V3.33337H60.5903V5.66671H62.9236C64.2123 5.66671 65.257 6.71138 65.257 8.00004V24.3334C65.257 25.622 64.2123 26.6667 62.9236 26.6667ZM46.5903 12.6667V24.3334H62.9236V12.6667H46.5903ZM46.5903 8.00004V10.3334H62.9236V8.00004H46.5903ZM55.9236 22H48.9236V15H55.9236V22Z" fill="#2E3A59"/>
<path d="M31.7539 36V27.4688H34.6777C35.6426 27.4688 36.377 27.6621 36.8809 28.0488C37.3848 28.4355 37.6367 29.0117 37.6367 29.7773C37.6367 30.168 37.5312 30.5195 37.3203 30.832C37.1094 31.1445 36.8008 31.3867 36.3945 31.5586C36.8555 31.6836 37.2109 31.9199 37.4609 32.2676C37.7148 32.6113 37.8418 33.0254 37.8418 33.5098C37.8418 34.3105 37.584 34.9258 37.0684 35.3555C36.5566 35.7852 35.8223 36 34.8652 36H31.7539ZM33.2363 32.1504V34.8164H34.8828C35.3477 34.8164 35.7109 34.7012 35.9727 34.4707C36.2344 34.2402 36.3652 33.9199 36.3652 33.5098C36.3652 32.623 35.9121 32.1699 35.0059 32.1504H33.2363ZM33.2363 31.0605H34.6895C35.1504 31.0605 35.5098 30.957 35.7676 30.75C36.0293 30.5391 36.1602 30.2422 36.1602 29.8594C36.1602 29.4375 36.0391 29.1328 35.7969 28.9453C35.5586 28.7578 35.1855 28.6641 34.6777 28.6641H33.2363V31.0605ZM42.9746 36C42.9121 35.8789 42.8574 35.6816 42.8105 35.4082C42.3574 35.8809 41.8027 36.1172 41.1465 36.1172C40.5098 36.1172 39.9902 35.9355 39.5879 35.5723C39.1855 35.209 38.9844 34.7598 38.9844 34.2246C38.9844 33.5488 39.2344 33.0312 39.7344 32.6719C40.2383 32.3086 40.957 32.127 41.8906 32.127H42.7637V31.7109C42.7637 31.3828 42.6719 31.1211 42.4883 30.9258C42.3047 30.7266 42.0254 30.627 41.6504 30.627C41.3262 30.627 41.0605 30.709 40.8535 30.873C40.6465 31.0332 40.543 31.2383 40.543 31.4883H39.1191C39.1191 31.1406 39.2344 30.8164 39.4648 30.5156C39.6953 30.2109 40.0078 29.9727 40.4023 29.8008C40.8008 29.6289 41.2441 29.543 41.7324 29.543C42.4746 29.543 43.0664 29.7305 43.5078 30.1055C43.9492 30.4766 44.1758 31 44.1875 31.6758V34.5352C44.1875 35.1055 44.2676 35.5605 44.4277 35.9004V36H42.9746ZM41.4102 34.9746C41.6914 34.9746 41.9551 34.9062 42.2012 34.7695C42.4512 34.6328 42.6387 34.4492 42.7637 34.2188V33.0234H41.9961C41.4688 33.0234 41.0723 33.1152 40.8066 33.2988C40.541 33.4824 40.4082 33.7422 40.4082 34.0781C40.4082 34.3516 40.498 34.5703 40.6777 34.7344C40.8613 34.8945 41.1055 34.9746 41.4102 34.9746ZM41.2695 28.6172L41.2285 27.7617C41.5137 27.7422 41.7188 27.7051 41.8438 27.6504C41.9727 27.5957 42.0371 27.5 42.0371 27.3633C42.0371 27.082 41.7441 26.9414 41.1582 26.9414L41.1992 26.2207C41.8594 26.2207 42.3555 26.3223 42.6875 26.5254C43.0234 26.7285 43.1914 27.002 43.1914 27.3457C43.1914 27.5801 43.1152 27.7734 42.9629 27.9258C42.8105 28.0781 42.5938 28.1738 42.3125 28.2129V28.6172H41.2695ZM47 29.6602L47.041 30.3926C47.5098 29.8262 48.125 29.543 48.8867 29.543C50.207 29.543 50.8789 30.2988 50.9023 31.8105V36H49.4785V31.8926C49.4785 31.4902 49.3906 31.1934 49.2148 31.002C49.043 30.8066 48.7598 30.709 48.3652 30.709C47.791 30.709 47.3633 30.9688 47.082 31.4883V36H45.6582V29.6602H47ZM52.1094 32.7832C52.1094 31.7988 52.3398 31.0137 52.8008 30.4277C53.2656 29.8379 53.8809 29.543 54.6465 29.543C55.3691 29.543 55.9375 29.7949 56.3516 30.2988L56.416 29.6602H57.6992V35.8066C57.6992 36.6387 57.4395 37.2949 56.9199 37.7754C56.4043 38.2559 55.707 38.4961 54.8281 38.4961C54.3633 38.4961 53.9082 38.3984 53.4629 38.2031C53.0215 38.0117 52.6855 37.7598 52.4551 37.4473L53.1289 36.5918C53.5664 37.1113 54.1055 37.3711 54.7461 37.3711C55.2188 37.3711 55.5918 37.2422 55.8652 36.9844C56.1387 36.7305 56.2754 36.3555 56.2754 35.8594V35.4316C55.8652 35.8887 55.3184 36.1172 54.6348 36.1172C53.8926 36.1172 53.2852 35.8223 52.8125 35.2324C52.3438 34.6426 52.1094 33.8262 52.1094 32.7832ZM53.5273 32.9062C53.5273 33.543 53.6562 34.0449 53.9141 34.4121C54.1758 34.7754 54.5371 34.957 54.998 34.957C55.5723 34.957 55.998 34.7109 56.2754 34.2188V31.4297C56.0059 30.9492 55.584 30.709 55.0098 30.709C54.541 30.709 54.1758 30.8945 53.9141 31.2656C53.6562 31.6367 53.5273 32.1836 53.5273 32.9062ZM68.1055 28.6641H65.4453V36H63.9746V28.6641H61.3379V27.4688H68.1055V28.6641ZM70.6074 36H69.1836V29.6602H70.6074V36ZM69.0957 28.0137C69.0957 27.7949 69.1641 27.6133 69.3008 27.4688C69.4414 27.3242 69.6406 27.252 69.8984 27.252C70.1562 27.252 70.3555 27.3242 70.4961 27.4688C70.6367 27.6133 70.707 27.7949 70.707 28.0137C70.707 28.2285 70.6367 28.4082 70.4961 28.5527C70.3555 28.6934 70.1562 28.7637 69.8984 28.7637C69.6406 28.7637 69.4414 28.6934 69.3008 28.5527C69.1641 28.4082 69.0957 28.2285 69.0957 28.0137ZM73.4844 29.6602L73.5254 30.3926C73.9941 29.8262 74.6094 29.543 75.3711 29.543C76.6914 29.543 77.3633 30.2988 77.3867 31.8105V36H75.9629V31.8926C75.9629 31.4902 75.875 31.1934 75.6992 31.002C75.5273 30.8066 75.2441 30.709 74.8496 30.709C74.2754 30.709 73.8477 30.9688 73.5664 31.4883V36H72.1426V29.6602H73.4844Z" fill="#2E3A59"/>
</svg>
