<svg width="23" height="23" viewBox="0 0 23 23" fill="none" xmlns="http://www.w3.org/2000/svg">
<path d="M21.1215 22.5C9.39057 22.5166 0.487463 13.5068 0.500013 1.87845C0.500013 1.11906 1.11562 0.5 1.87501 0.5H5.50413C6.18554 0.5 6.76441 1.00068 6.86446 1.6747C7.10428 3.29015 7.57461 4.86283 8.26117 6.34472L8.40246 6.64969C8.59893 7.07375 8.46576 7.57759 8.08543 7.8492C6.96154 8.65181 6.53202 10.2674 7.40758 11.528C8.50632 13.1099 9.89132 14.4946 11.4729 15.5929C12.7334 16.4682 14.3487 16.0387 15.1513 14.915C15.4231 14.5345 15.9272 14.4012 16.3515 14.5978L16.6551 14.7384C18.1371 15.4249 19.7099 15.8953 21.3255 16.1351C21.9996 16.2351 22.5 16.8139 22.5 17.4954V21.125C22.5 21.8844 21.8829 22.5 21.1235 22.5L21.1215 22.5Z" fill="#1E5630"/>
</svg>
