<svg width="115" height="40" viewBox="0 0 115 40" fill="none" xmlns="http://www.w3.org/2000/svg">
<path d="M13.7668 1L0 39H86.5857H113.757V1H13.7668Z" fill="#9BC88B"/>
<path d="M0 39H86.5857H113.757V1H13.7668" stroke="#027541" stroke-width="1.5"/>
<path d="M56.5882 22.0116L50.8132 16.2378L52.4617 14.5869L56.5882 18.7134L66.4874 8.81311L68.137 10.4628L56.587 22.0128L56.5882 22.0116ZM51.638 22.0116L45.863 16.2378L47.5127 14.5869L53.2877 20.3619L51.6392 22.0116H51.638ZM56.5882 17.0626L54.9374 15.4129L62.362 7.98828L64.0129 9.63795L56.5882 17.0614V17.0626Z" fill="#2E3A59"/>
<path d="M37.9316 36H36.4492L32.6465 29.9473V36H31.1641V27.4688H32.6465L36.4609 33.5449V27.4688H37.9316V36ZM40.9492 30.3516C41.4141 29.8125 42.002 29.543 42.7129 29.543C44.0645 29.543 44.75 30.3145 44.7695 31.8574V36H43.3457V31.9102C43.3457 31.4727 43.25 31.1641 43.0586 30.9844C42.8711 30.8008 42.5938 30.709 42.2266 30.709C41.6562 30.709 41.2305 30.9629 40.9492 31.4707V36H39.5254V27H40.9492V30.3516ZM47.7285 36H46.3047V29.6602H47.7285V36ZM46.2168 28.0137C46.2168 27.7949 46.2852 27.6133 46.4219 27.4688C46.5625 27.3242 46.7617 27.252 47.0195 27.252C47.2773 27.252 47.4766 27.3242 47.6172 27.4688C47.7578 27.6133 47.8281 27.7949 47.8281 28.0137C47.8281 28.2285 47.7578 28.4082 47.6172 28.5527C47.4766 28.6934 47.2773 28.7637 47.0195 28.7637C46.7617 28.7637 46.5625 28.6934 46.4219 28.5527C46.2852 28.4082 46.2168 28.2285 46.2168 28.0137ZM52.0762 36.1172C51.1738 36.1172 50.4414 35.834 49.8789 35.2676C49.3203 34.6973 49.041 33.9395 49.041 32.9941V32.8184C49.041 32.1855 49.1621 31.6211 49.4043 31.125C49.6504 30.625 49.9941 30.2363 50.4355 29.959C50.877 29.6816 51.3691 29.543 51.9121 29.543C52.7754 29.543 53.4414 29.8184 53.9102 30.3691C54.3828 30.9199 54.6191 31.6992 54.6191 32.707V33.2812H50.4766C50.5195 33.8047 50.6934 34.2188 50.998 34.5234C51.3066 34.8281 51.6934 34.9805 52.1582 34.9805C52.8105 34.9805 53.3418 34.7168 53.752 34.1895L54.5195 34.9219C54.2656 35.3008 53.9258 35.5957 53.5 35.8066C53.0781 36.0137 52.6035 36.1172 52.0762 36.1172ZM51.9062 30.6855C51.5156 30.6855 51.1992 30.8223 50.957 31.0957C50.7188 31.3691 50.5664 31.75 50.5 32.2383H53.2129V32.1328C53.1816 31.6562 53.0547 31.2969 52.832 31.0547C52.6094 30.8086 52.3008 30.6855 51.9062 30.6855ZM53.8281 28.623V28.6875H52.6855L51.8066 27.7734L50.9336 28.6875H49.8027V28.6113L51.3906 26.9941H52.2285L53.8281 28.623ZM51.0566 37.4121C51.0566 37.2051 51.125 37.0312 51.2617 36.8906C51.4023 36.7539 51.6016 36.6855 51.8594 36.6855C52.1172 36.6855 52.3164 36.7539 52.457 36.8906C52.5977 37.0312 52.668 37.2051 52.668 37.4121C52.668 37.6191 52.5977 37.791 52.457 37.9277C52.3164 38.0645 52.1172 38.1328 51.8594 38.1328C51.6016 38.1328 51.4023 38.0645 51.2617 37.9277C51.125 37.791 51.0566 37.6191 51.0566 37.4121ZM57.0684 29.6602L57.1094 30.3223C57.5547 29.8027 58.1641 29.543 58.9375 29.543C59.7852 29.543 60.3652 29.8672 60.6777 30.5156C61.1387 29.8672 61.7871 29.543 62.623 29.543C63.3223 29.543 63.8418 29.7363 64.1816 30.123C64.5254 30.5098 64.7012 31.0801 64.709 31.834V36H63.2852V31.875C63.2852 31.4727 63.1973 31.1777 63.0215 30.9902C62.8457 30.8027 62.5547 30.709 62.1484 30.709C61.8242 30.709 61.5586 30.7969 61.3516 30.9727C61.1484 31.1445 61.0059 31.3711 60.9238 31.6523L60.9297 36H59.5059V31.8281C59.4863 31.082 59.1055 30.709 58.3633 30.709C57.793 30.709 57.3887 30.9414 57.1504 31.4062V36H55.7266V29.6602H57.0684ZM72.3027 34.1426L74.4707 27.4688H76.0996L73.0293 36H71.5938L68.5352 27.4688H70.1582L72.3027 34.1426ZM80.6055 35.3789C80.1875 35.8711 79.5938 36.1172 78.8242 36.1172C78.1367 36.1172 77.6152 35.916 77.2598 35.5137C76.9082 35.1113 76.7324 34.5293 76.7324 33.7676V29.6602H78.1562V33.75C78.1562 34.5547 78.4902 34.957 79.1582 34.957C79.8496 34.957 80.3164 34.709 80.5586 34.2129V29.6602H81.9824V36H80.6406L80.6055 35.3789ZM78.0859 37.4121C78.0859 37.2051 78.1543 37.0312 78.291 36.8906C78.4316 36.7539 78.6309 36.6855 78.8887 36.6855C79.1465 36.6855 79.3457 36.7539 79.4863 36.8906C79.627 37.0312 79.6973 37.2051 79.6973 37.4121C79.6973 37.6191 79.627 37.791 79.4863 37.9277C79.3457 38.0645 79.1465 38.1328 78.8887 38.1328C78.6309 38.1328 78.4316 38.0645 78.291 37.9277C78.1543 37.791 78.0859 37.6191 78.0859 37.4121Z" fill="#2E3A59"/>
</svg>
